<svg width="256" height="256" viewBox="0 0 256 256" fill="none" xmlns="http://www.w3.org/2000/svg">
<rect x="38.5867" y="19.2934" width="217.413" height="217.413" rx="108.707" fill="#FF5900"/>
<rect x="38.5867" y="19.2934" width="217.413" height="217.413" rx="108.707" stroke="#FF5900"/>
<rect y="92.0037" width="114.234" height="114.234" rx="8" fill="url(#paint0_linear_39_50)"/>
<path d="M88.6607 149.06C88.6607 156.335 87.2616 162.501 84.4635 167.56C81.6653 172.618 77.877 176.46 73.0987 179.086C68.3418 181.712 63.0038 183.025 57.0847 183.025C51.144 183.025 45.7952 181.701 41.0384 179.054C36.2815 176.406 32.504 172.564 29.7059 167.527C26.9292 162.469 25.5409 156.313 25.5409 149.06C25.5409 141.784 26.9292 135.618 29.7059 130.559C32.504 125.501 36.2815 121.659 41.0384 119.033C45.7952 116.407 51.144 115.094 57.0847 115.094C63.0038 115.094 68.3418 116.407 73.0987 119.033C77.877 121.659 81.6653 125.501 84.4635 130.559C87.2616 135.618 88.6607 141.784 88.6607 149.06ZM72.3238 149.06C72.3238 144.755 71.7104 141.117 70.4835 138.147C69.2781 135.176 67.5347 132.927 65.2531 131.399C62.9931 129.871 60.2702 129.107 57.0847 129.107C53.9206 129.107 51.1978 129.871 48.9162 131.399C46.6347 132.927 44.8804 135.176 43.6535 138.147C42.4482 141.117 41.8455 144.755 41.8455 149.06C41.8455 153.364 42.4482 157.002 43.6535 159.972C44.8804 162.943 46.6347 165.192 48.9162 166.72C51.1978 168.248 53.9206 169.012 57.0847 169.012C60.2702 169.012 62.9931 168.248 65.2531 166.72C67.5347 165.192 69.2781 162.943 70.4835 159.972C71.7104 157.002 72.3238 153.364 72.3238 149.06Z" fill="white"/>
<path d="M227.293 128C173.151 128 147.294 128 147.294 128C147.294 128 147.295 74.9272 147.293 48C191.476 48 227.293 83.8172 227.293 128Z" fill="white" fill-opacity="0.85"/>
<defs>
<linearGradient id="paint0_linear_39_50" x1="5.90076" y1="99.9329" x2="105.223" y2="200.025" gradientUnits="userSpaceOnUse">
<stop stop-color="#ED4801"/>
<stop offset="1" stop-color="#C33B00"/>
</linearGradient>
</defs>
</svg>
